<?xml version="1.0" standalone="no"?><!DOCTYPE svg PUBLIC "-//W3C//DTD SVG 1.1//EN" "http://www.w3.org/Graphics/SVG/1.1/DTD/svg11.dtd"><svg t="1555980846343" class="icon" style="" viewBox="0 0 1024 1024" version="1.1" xmlns="http://www.w3.org/2000/svg" p-id="2021" xmlns:xlink="http://www.w3.org/1999/xlink" width="32" height="32"><defs><style type="text/css"></style></defs><path d="M265.198107 758.021717a210.977006 210.977006 0 1 1 212.277444-210.977006 211.856714 211.856714 0 0 1-212.277444 210.977006z m0-383.954437a172.977431 172.977431 0 1 0 174.029256 172.977431 173.704147 173.704147 0 0 0-174.029256-172.996555z m435.608615 649.932338a210.977006 210.977006 0 1 1 212.277444-210.977006 211.856714 211.856714 0 0 1-212.296568 210.977006z m0-383.954437a172.977431 172.977431 0 1 0 174.029256 172.977431 173.704147 173.704147 0 0 0-174.04838-172.977431zM403.713921 414.858973l-13.386866-35.589939c95.888208-35.742932 160.183412-88.334191 191.14532-156.320345a255.096291 255.096291 0 0 0 11.646573-168.292028 245.840229 245.840229 0 0 1-89.883242-20.634898l17.039568-34.021763a217.593942 217.593942 0 0 0 87.091124 17.020444h13.119129l4.723651 12.182048a290.016887 290.016887 0 0 1-8.605842 208.758611c-35.322202 77.892435-106.903686 137.368368-212.90854 176.89787z m305.717767 206.540216a19.468328 19.468328 0 0 1-6.177082-1.032701 18.951977 18.951977 0 0 1-11.933435-24.05811c0.478102-1.434307 47.542498-146.414064-25.894023-383.59108a19.124094 19.124094 0 0 1 36.546144-11.16847c77.395209 249.990158 27.710812 400.649771 25.530665 406.941597a19.124094 19.124094 0 0 1-18.091393 12.851392z m-113.807483 165.193925a19.869934 19.869934 0 0 1-3.824819-0.382482 18.971101 18.971101 0 0 1-14.974166-22.336942 77.089223 77.089223 0 0 1 63.874474-65.404402 18.990225 18.990225 0 1 1 4.475038 37.712714 39.835488 39.835488 0 0 0-30.866287 35.13096 19.124094 19.124094 0 0 1-18.703364 15.222779zM172.713988 499.215352a19.43008 19.43008 0 0 1-5.565111-0.822336 18.990225 18.990225 0 0 1-12.736647-23.694753 77.299588 77.299588 0 0 1 70.032433-58.90221h0.229489a18.990225 18.990225 0 0 1 0.497226 37.980451 39.89286 39.89286 0 0 0-34.174756 31.956362 19.124094 19.124094 0 0 1-18.301758 13.425114z m718.109733-149.340051a242.875995 242.875995 0 0 1-114.381207-28.514024c-85.484701-45.304979-147.790999-140.217858-185.235975-282.118636l-4.876644-18.512123 18.645992-4.723651a277.758342 277.758342 0 0 1 199.69379 35.016216c80.053458 49.244542 134.786615 139.357274 162.669544 267.737317l3.557082 16.446721-15.968619 5.507739a211.455108 211.455108 0 0 1-64.123087 9.103069zM633.795896 49.856513c34.805851 119.544712 88.56368 199.426053 159.953923 237.597745a206.750581 206.750581 0 0 0 131.956249 21.304241c-26.505994-107.993759-73.780755-183.591303-140.676836-225.090587a243.60271 243.60271 0 0 0-151.25246-33.868771z" fill="#333333" p-id="2022"></path></svg>